<svg width="36" height="36" viewBox="0 0 36 36" fill="none" xmlns="http://www.w3.org/2000/svg">
<circle cx="18" cy="18" r="18" fill="#303030"/>
<g clip-path="url(#clip0_9_15378)">
<mask id="mask0_9_15378" style="mask-type:alpha" maskUnits="userSpaceOnUse" x="4" y="6" width="28" height="24">
<path d="M14.961 23.8553C11.2154 25.4933 6.822 23.8497 5.1482 20.1842C3.47439 16.5188 5.15399 12.2195 8.89965 10.5816C12.6453 8.94364 17.0387 10.5872 18.7125 14.2527C20.3863 17.9181 18.7067 22.2173 14.961 23.8553Z" fill="black"/>
<path d="M28.4551 16.3787C25.862 17.5126 22.8204 16.3747 21.6616 13.8371C20.5029 11.2995 21.6657 8.32312 24.2588 7.18915C26.852 6.05517 29.8935 7.19303 31.0523 9.73067C32.2111 12.2683 31.0483 15.2447 28.4551 16.3787Z" fill="black"/>
<path d="M26.6358 28.8961C24.5469 29.8096 22.0967 28.8929 21.1632 26.8487C20.2298 24.8045 21.1665 22.4069 23.2554 21.4934C25.3443 20.5799 27.7945 21.4965 28.7279 23.5408C29.6614 25.5849 28.7247 27.9826 26.6358 28.8961Z" fill="black"/>
</mask>
<g mask="url(#mask0_9_15378)">
<path d="M1.37416 26.818C5.84836 36.616 17.5921 41.0095 27.6046 36.6311C37.6171 32.2528 42.1067 20.7605 37.6325 10.9625C33.1583 1.16453 21.4145 -3.22895 11.4021 1.14941C1.38961 5.52778 -3.10004 17.02 1.37416 26.818Z" fill="white"/>
<path d="M11.8533 21.813C13.8168 26.1129 18.9705 28.041 23.3644 26.1195C27.7584 24.1981 29.7287 19.1547 27.7652 14.8549C25.8017 10.555 20.648 8.62697 16.254 10.5484C11.86 12.4699 9.88976 17.5132 11.8533 21.813Z" fill="#4BCCE7"/>
</g>
</g>
<defs>
<clipPath id="clip0_9_15378">
<rect width="27" height="22.5" fill="white" transform="translate(4.5 6.75)"/>
</clipPath>
</defs>
</svg>
