<svg width="32" height="32" viewBox="0 0 32 32" fill="none" xmlns="http://www.w3.org/2000/svg">
<circle cx="16" cy="16" r="16" fill="#303030"/>
<g clip-path="url(#clip0_9_15378)">
<mask id="mask0_9_15378" style="mask-type:alpha" maskUnits="userSpaceOnUse" x="4" y="6" width="25" height="20">
<path d="M13.2987 21.2045C9.96921 22.6605 6.064 21.1995 4.57617 17.9413C3.08835 14.6831 4.58132 10.8616 7.9108 9.40562C11.2403 7.94969 15.1455 9.41065 16.6333 12.6688C18.1211 15.927 16.6282 19.7485 13.2987 21.2045Z" fill="black"/>
<path d="M25.293 14.5588C22.988 15.5668 20.2844 14.5553 19.2544 12.2997C18.2243 10.044 19.2579 7.39833 21.5629 6.39036C23.868 5.38237 26.5716 6.3938 27.6016 8.64949C28.6317 10.9051 27.5981 13.5508 25.293 14.5588Z" fill="black"/>
<path d="M23.6761 25.6856C21.8192 26.4976 19.6413 25.6828 18.8116 23.8658C17.9818 22.0487 18.8144 19.9175 20.6713 19.1055C22.5281 18.2935 24.706 19.1083 25.5357 20.9253C26.3655 22.7424 25.5329 24.8736 23.6761 25.6856Z" fill="black"/>
</mask>
<g mask="url(#mask0_9_15378)">
<path d="M1.22147 23.8385C5.19854 32.5478 15.6374 36.4531 24.5374 32.5613C33.4374 28.6694 37.4282 18.4541 33.4511 9.74475C29.4741 1.03541 19.0351 -2.86991 10.1352 1.02197C1.23521 4.91385 -2.7556 15.1292 1.22147 23.8385Z" fill="white"/>
<path d="M10.5368 19.3897C12.2821 23.2118 16.8632 24.9256 20.7689 23.2177C24.6747 21.5097 26.426 17.0268 24.6807 13.2047C22.9354 9.38259 18.3543 7.66874 14.4485 9.37669C10.5428 11.0846 8.79144 15.5676 10.5368 19.3897Z" fill="#4BCCE7"/>
</g>
</g>
<defs>
<clipPath id="clip0_9_15378">
<rect width="24" height="20" fill="white" transform="translate(4 6)"/>
</clipPath>
</defs>
</svg>
