<svg width="33" height="33" viewBox="0 0 33 33" fill="none" xmlns="http://www.w3.org/2000/svg">
<g clip-path="url(#clip0_9_18597)">
<path d="M26 32.5C22.4101 32.5 19.5 29.5899 19.5 26C19.5 22.4101 22.4101 19.5 26 19.5C29.5899 19.5 32.5 22.4101 32.5 26C32.5 29.5899 29.5899 32.5 26 32.5Z" fill="#F4B731"/>
<path d="M29.8542 27.0723H29.0828C28.6582 28.2509 27.5163 29.0591 26.0105 29.0591H23.534V27.0723H22.6738V26.3594H23.534V25.6119H22.6738V24.8991H23.534V22.9361H26.0105C27.499 22.9361 28.6322 23.7378 29.0677 24.8991H29.8542V25.6119H29.241C29.2562 25.7376 29.2648 25.8676 29.2648 25.9976V26.0149C29.2648 26.1319 29.2583 26.2468 29.2475 26.3594H29.8563V27.0723H29.8542ZM24.2273 28.4242H26.0105C27.1155 28.4242 27.9367 27.8804 28.3158 27.0744H24.2273V28.4242ZM26.0105 23.5774H24.2273V24.9013H28.3115C27.9302 24.1083 27.1112 23.5774 26.0105 23.5774ZM28.5477 25.9824C28.5477 25.8568 28.539 25.7333 28.5217 25.6141H24.2273V26.3616H28.5238C28.539 26.2446 28.5477 26.1233 28.5477 25.9998V25.9824Z" fill="white"/>
</g>
<path fill-rule="evenodd" clip-rule="evenodd" d="M31.4566 20.1497C31.811 18.8263 32 17.4352 32 16C32 7.16344 24.8366 0 16 0C7.16344 0 0 7.16344 0 16C0 24.8366 7.16344 32 16 32C17.4352 32 18.8263 31.811 20.1497 31.4566C18.8161 30.0274 18 28.109 18 26C18 21.5817 21.5817 18 26 18C28.109 18 30.0274 18.8161 31.4566 20.1497Z" fill="#303030"/>
<path fill-rule="evenodd" clip-rule="evenodd" d="M18.7274 6H16.9092V16.8396L18.7274 18.6717V6ZM20.5459 6H22.3641V18.8721C21.6987 19.2121 21.0873 19.6426 20.5459 20.1474V6ZM25.9998 18V6H24.1816V18.2076C24.7657 18.0718 25.3744 18 25.9998 18Z" fill="#28B0E6" fill-opacity="0.6"/>
<path fill-rule="evenodd" clip-rule="evenodd" d="M13.2725 13.252V25.9999H15.0906V15.084L13.2725 13.252Z" fill="#28B0E6"/>
<path fill-rule="evenodd" clip-rule="evenodd" d="M9.63672 9.5874V25.9999H11.4549V11.4194L9.63672 9.5874Z" fill="#28B0E6"/>
<path fill-rule="evenodd" clip-rule="evenodd" d="M6.07633 6H6V25.9997H7.81817V7.75513L6.07633 6Z" fill="#28B0E6"/>
<defs>
<clipPath id="clip0_9_18597">
<rect width="13" height="13" fill="white" transform="matrix(1 0 0 -1 19.5 32.5)"/>
</clipPath>
</defs>
</svg>
