<svg width="33" height="33" viewBox="0 0 33 33" fill="none" xmlns="http://www.w3.org/2000/svg">
<g clip-path="url(#clip0_9_18546)">
<path d="M26 32.5C29.6021 32.5 32.5 29.6021 32.5 26C32.5 22.3979 29.6021 19.5 26 19.5C22.3979 19.5 19.5 22.3979 19.5 26C19.5 29.6021 22.3979 32.5 26 32.5Z" fill="#2775CA"/>
<path fill-rule="evenodd" clip-rule="evenodd" d="M22.2089 24.673C21.4234 26.7585 22.5068 29.1147 24.6193 29.873C24.7005 29.9272 24.7818 30.0355 24.7818 30.1168V30.496C24.7818 30.5501 24.7818 30.5772 24.7547 30.6043C24.7276 30.7126 24.6193 30.7668 24.5109 30.7126C22.9943 30.2251 21.8297 29.0605 21.3422 27.5439C20.5297 24.971 21.938 22.2355 24.5109 21.423C24.538 21.396 24.5922 21.396 24.6193 21.396C24.7276 21.423 24.7818 21.5043 24.7818 21.6126V21.9918C24.7818 22.1272 24.7276 22.2085 24.6193 22.2626C23.5089 22.6689 22.6151 23.5355 22.2089 24.673ZM27.2464 21.5314C27.2734 21.423 27.3818 21.3689 27.4901 21.423C28.9797 21.9105 30.1714 23.0751 30.6589 24.6189C31.4714 27.1918 30.063 29.9272 27.4901 30.7397C27.463 30.7668 27.4089 30.7668 27.3818 30.7668C27.2734 30.7397 27.2193 30.6585 27.2193 30.5501V30.171C27.2193 30.0355 27.2734 29.9543 27.3818 29.9001C28.4922 29.4939 29.3859 28.6272 29.7922 27.4897C30.5776 25.4043 29.4943 23.048 27.3818 22.2897C27.3005 22.2355 27.2193 22.1272 27.2193 22.0189V21.6397C27.2193 21.5855 27.2193 21.5585 27.2464 21.5314ZM26.0809 25.621C27.2184 25.7564 27.7872 26.0814 27.7872 27.0293C27.7872 27.7606 27.2455 28.3293 26.433 28.4648V29.1148C26.4059 29.2502 26.3247 29.3314 26.2163 29.3314H25.8101C25.6747 29.3043 25.5934 29.2231 25.5934 29.1148V28.4648C24.6997 28.3293 24.2663 27.8418 24.158 27.1648V27.1377C24.158 27.0293 24.2393 26.9481 24.3476 26.9481H24.808C24.8893 26.9481 24.9705 27.0023 24.9976 27.1106C25.0788 27.5168 25.3226 27.8148 26.0268 27.8148C26.5413 27.8148 26.9205 27.5169 26.9205 27.0835C26.9205 26.6502 26.6768 26.4877 25.9184 26.3523C24.7809 26.2168 24.2393 25.8648 24.2393 24.971C24.2393 24.2939 24.7538 23.7523 25.5663 23.6439V23.021C25.5934 22.8856 25.6747 22.8043 25.783 22.8043H26.1893C26.3247 22.8314 26.4059 22.9127 26.4059 23.021V23.671C27.0288 23.7252 27.5163 24.1856 27.6247 24.7814V24.8085C27.6247 24.9168 27.5434 24.9981 27.4351 24.9981H27.0018C26.9205 24.9981 26.8393 24.9439 26.8122 24.8627C26.6768 24.4564 26.4059 24.2939 25.9184 24.2939C25.3768 24.2939 25.1059 24.5376 25.1059 24.9168C25.1059 25.296 25.2684 25.5127 26.0809 25.621Z" fill="white"/>
</g>
<path fill-rule="evenodd" clip-rule="evenodd" d="M31.4566 20.1497C31.811 18.8263 32 17.4352 32 16C32 7.16344 24.8366 0 16 0C7.16344 0 0 7.16344 0 16C0 24.8366 7.16344 32 16 32C17.4352 32 18.8263 31.811 20.1497 31.4566C18.8161 30.0274 18 28.109 18 26C18 21.5817 21.5817 18 26 18C28.109 18 30.0274 18.8161 31.4566 20.1497Z" fill="#303030"/>
<path fill-rule="evenodd" clip-rule="evenodd" d="M18.7274 6H16.9092V16.8396L18.7274 18.6717V6ZM20.5459 6H22.3641V18.8721C21.6987 19.2121 21.0873 19.6426 20.5459 20.1474V6ZM25.9998 18V6H24.1816V18.2076C24.7657 18.0718 25.3744 18 25.9998 18Z" fill="#28B0E6" fill-opacity="0.6"/>
<path fill-rule="evenodd" clip-rule="evenodd" d="M13.2725 13.252V25.9999H15.0906V15.084L13.2725 13.252Z" fill="#28B0E6"/>
<path fill-rule="evenodd" clip-rule="evenodd" d="M9.63672 9.5874V25.9999H11.4549V11.4194L9.63672 9.5874Z" fill="#28B0E6"/>
<path fill-rule="evenodd" clip-rule="evenodd" d="M6.07633 6H6V25.9997H7.81817V7.75513L6.07633 6Z" fill="#28B0E6"/>
<defs>
<clipPath id="clip0_9_18546">
<rect width="13" height="13" fill="white" transform="translate(19.5 19.5)"/>
</clipPath>
</defs>
</svg>
